<svg xmlns="http://www.w3.org/2000/svg" width="45" height="45" viewBox="0 0 45 45">
    <defs>
        <clipPath id="cemqxlz8ja">
            <path data-name="矩形 40650" transform="translate(676 199)" style="fill:none" d="M0 0h45v45H0z"/>
        </clipPath>
    </defs>
    <g data-name="蒙版组 1736" transform="translate(-676 -199)" style="clip-path:url(#cemqxlz8ja)">
        <path data-name="减去 96" d="M-1328.927-2168h-24.145v-4.015h2.913v-8.6h6.159v-5.426a9.887 9.887 0 0 1-3.006-2.7 26.079 26.079 0 0 1-3.2-5.763c-.021-.051-.041-.1-.06-.156s-.035-.094-.054-.14a9.708 9.708 0 0 1-6.275-2.383c-4.354-3.858-4.4-10.905-4.4-11.2v-1.313h7.938V-2210.029a44.05 44.05 0 0 1 .023-2.957L-1341-2213l12.044.008a.124.124 0 0 1 0 .024c.016.385.051 1.441.021 2.924V-2209.702h7.935v1.313c0 .3-.05 7.345-4.4 11.2a9.716 9.716 0 0 1-6.277 2.382c-.02.048-.038.1-.058.151s-.036.1-.056.146a26.105 26.105 0 0 1-3.2 5.765 9.9 9.9 0 0 1-3.007 2.705v5.422h6.161v8.6h2.913v4.018zm-12.073-41.018a.489.489 0 0 0-.471.331l-1.414 3.944a.5.5 0 0 1-.458.33l-4.226.107a.488.488 0 0 0-.464.346.5.5 0 0 0 .175.553l3.344 2.525a.5.5 0 0 1 .177.543l-1.2 3.99a.486.486 0 0 0 .074.44.509.509 0 0 0 .405.207.5.5 0 0 0 .279-.088l3.5-2.373a.5.5 0 0 1 .281-.086.5.5 0 0 1 .281.086l3.5 2.373a.5.5 0 0 0 .28.088.509.509 0 0 0 .406-.207.485.485 0 0 0 .074-.439l-1.2-3.99a.5.5 0 0 1 .177-.543l3.344-2.525a.5.5 0 0 0 .174-.553.488.488 0 0 0-.463-.346l-4.226-.107a.494.494 0 0 1-.458-.33l-1.414-3.944a.489.489 0 0 0-.477-.332zm11.925 1.938a45.158 45.158 0 0 1-1.65 9.566 6.948 6.948 0 0 0 3.58-1.623c2.483-2.2 3.219-5.92 3.436-7.943zm-29.215 0c.22 2.025.958 5.75 3.435 7.943a6.958 6.958 0 0 0 3.581 1.623 45.22 45.22 0 0 1-1.651-9.566z" transform="translate(2040 2412)" style="fill:#e5e7e8;stroke:transparent;stroke-miterlimit:10"/>
    </g>
</svg>
