<?xml version="1.0" encoding="utf-8"?>
<!-- Generator: Adobe Illustrator 16.0.0, SVG Export Plug-In . SVG Version: 6.00 Build 0)  -->
<!DOCTYPE svg PUBLIC "-//W3C//DTD SVG 1.1//EN" "http://www.w3.org/Graphics/SVG/1.1/DTD/svg11.dtd">
<svg version="1.1" id="圖層_5" xmlns="http://www.w3.org/2000/svg" xmlns:xlink="http://www.w3.org/1999/xlink" x="0px" y="0px"
	 width="100px" height="100px" viewBox="0 0 100 100" enable-background="new 0 0 100 100" xml:space="preserve">
<path fill="#2E3ED4" d="M90,18.9c-3.171-2.207-7.499-1.644-10,1.3L40,64.1L20,43.6c-2.928-2.925-7.672-2.925-10.6,0
	c-2.828,2.951-2.728,7.635,0.223,10.462C9.745,54.18,9.871,54.292,10,54.4L33.8,80c1.322,1.378,3.098,2.23,5,2.4h0.6
	c2.053-0.027,4.004-0.895,5.4-2.4L90,30c0.357-0.308,0.692-0.642,1-1C93.342,25.885,92.906,21.496,90,18.9z"/>
</svg>
