<svg id="btn_settings" xmlns="http://www.w3.org/2000/svg" width="16.006" height="16" viewBox="0 0 16.006 16">
  <path id="路径_10975" data-name="路径 10975" d="M14.462,5.966h-.281a6.5,6.5,0,0,0-.375-.9l.2-.2A1.535,1.535,0,0,0,14,2.7l-.7-.7a1.535,1.535,0,0,0-2.172,0l-.2.2a6.839,6.839,0,0,0-.9-.375V1.537A1.529,1.529,0,0,0,8.5,0H7.5A1.538,1.538,0,0,0,5.966,1.538v.281a6.5,6.5,0,0,0-.9.375l-.2-.2A1.535,1.535,0,0,0,2.7,2l-.706.7a1.535,1.535,0,0,0,0,2.172l.2.2a6.839,6.839,0,0,0-.375.9H1.534A1.54,1.54,0,0,0,0,7.5V8.5a1.54,1.54,0,0,0,1.538,1.537h.281a6.5,6.5,0,0,0,.375.9l-.2.2A1.535,1.535,0,0,0,2,13.3l.7.7a1.535,1.535,0,0,0,2.172,0l.2-.2a6.839,6.839,0,0,0,.9.375v.281A1.54,1.54,0,0,0,7.509,16H8.5a1.538,1.538,0,0,0,1.538-1.538v-.281a6.5,6.5,0,0,0,.9-.375l.2.2a1.535,1.535,0,0,0,2.172,0l.7-.7a1.535,1.535,0,0,0,0-2.172l-.2-.2a6.839,6.839,0,0,0,.375-.9h.281a1.54,1.54,0,0,0,1.538-1.538V7.5a1.549,1.549,0,0,0-1.544-1.531ZM13.253,9.356a5.371,5.371,0,0,1-.581,1.4.544.544,0,0,0,.084.659l.484.484a.452.452,0,0,1,.131.319.459.459,0,0,1-.131.322l-.7.7a.454.454,0,0,1-.322.131.446.446,0,0,1-.319-.131l-.484-.484a.544.544,0,0,0-.659-.084,5.416,5.416,0,0,1-1.4.581.541.541,0,0,0-.406.525v.684a.453.453,0,0,1-.453.453H7.5a.453.453,0,0,1-.453-.453v-.684a.541.541,0,0,0-.406-.525,5.371,5.371,0,0,1-1.4-.581.543.543,0,0,0-.659.084l-.484.484a.452.452,0,0,1-.319.131.459.459,0,0,1-.322-.131l-.7-.7a.454.454,0,0,1-.131-.322.446.446,0,0,1,.131-.319l.484-.484a.544.544,0,0,0,.084-.659,5.416,5.416,0,0,1-.581-1.4.541.541,0,0,0-.525-.406H1.538A.453.453,0,0,1,1.084,8.5V7.5a.453.453,0,0,1,.453-.453h.684a.541.541,0,0,0,.525-.406,5.371,5.371,0,0,1,.581-1.4.544.544,0,0,0-.084-.659L2.759,4.1a.452.452,0,0,1-.131-.319.459.459,0,0,1,.131-.322l.7-.7a.454.454,0,0,1,.322-.131.446.446,0,0,1,.319.131l.484.484a.544.544,0,0,0,.659.084,5.416,5.416,0,0,1,1.4-.581.541.541,0,0,0,.406-.525V1.538A.453.453,0,0,1,7.5,1.084H8.5a.453.453,0,0,1,.453.453v.684a.541.541,0,0,0,.406.525,5.371,5.371,0,0,1,1.4.581.544.544,0,0,0,.659-.084l.484-.484a.452.452,0,0,1,.319-.131.459.459,0,0,1,.322.131l.7.7a.454.454,0,0,1,.131.322.446.446,0,0,1-.131.319l-.484.484a.544.544,0,0,0-.084.659,5.416,5.416,0,0,1,.581,1.4.541.541,0,0,0,.525.406h.684a.453.453,0,0,1,.453.453V8.5a.453.453,0,0,1-.453.453h-.684a.541.541,0,0,0-.525.406Z" fill="#909293"/>
  <path id="路径_10976" data-name="路径 10976" d="M146.725,143.2a3.525,3.525,0,1,0,3.525,3.525A3.529,3.529,0,0,0,146.725,143.2Zm2.441,3.525a2.441,2.441,0,1,1-2.441-2.441A2.444,2.444,0,0,1,149.166,146.725Z" transform="translate(-138.725 -138.725)" fill="#909293"/>
</svg>
